<mxfile host="app.diagrams.net" agent="Mozilla/5.0 (Macintosh; Intel Mac OS X 10_15_7) AppleWebKit/605.1.15 (KHTML, like Gecko) Version/18.2 Safari/605.1.15" version="26.0.6">
  <diagram name="Page-1" id="_rFBySnfzoPYbshQJ1sT">
    <mxGraphModel dx="708" dy="437" grid="1" gridSize="10" guides="1" tooltips="1" connect="1" arrows="1" fold="1" page="1" pageScale="1" pageWidth="850" pageHeight="1100" math="0" shadow="0" adaptiveColors="auto">
      <root>
        <mxCell id="0" />
        <mxCell id="1" parent="0" />
        <mxCell id="2" value="Controller" style="whiteSpace=wrap;strokeWidth=2;" parent="1" vertex="1">
          <mxGeometry x="39" y="8" width="132" height="54" as="geometry" />
        </mxCell>
        <mxCell id="3" value="Spring Boot" style="whiteSpace=wrap;strokeWidth=2;" parent="1" vertex="1">
          <mxGeometry x="34" y="135" width="142" height="54" as="geometry" />
        </mxCell>
        <mxCell id="4" value="Spring Boot" style="whiteSpace=wrap;strokeWidth=2;" parent="1" vertex="1">
          <mxGeometry x="34" y="261" width="142" height="54" as="geometry" />
        </mxCell>
        <mxCell id="5" value="Spring Boot" style="whiteSpace=wrap;strokeWidth=2;" parent="1" vertex="1">
          <mxGeometry x="34" y="388" width="142" height="54" as="geometry" />
        </mxCell>
        <mxCell id="6" value="Spring Boot" style="whiteSpace=wrap;strokeWidth=2;" parent="1" vertex="1">
          <mxGeometry x="34" y="514" width="142" height="54" as="geometry" />
        </mxCell>
        <mxCell id="7" value="Spring Boot" style="whiteSpace=wrap;strokeWidth=2;" parent="1" vertex="1">
          <mxGeometry x="34" y="641" width="142" height="54" as="geometry" />
        </mxCell>
        <mxCell id="8" value="@RestController" style="curved=0;startArrow=none;endArrow=classicThin;exitX=0.5;exitY=1;entryX=0.5;entryY=-0.01;flowAnimation=1;dashed=1;dashPattern=1 2;rounded=0;strokeColor=default;jumpSize=2;endFill=1;" parent="1" source="2" target="3" edge="1">
          <mxGeometry relative="1" as="geometry">
            <Array as="points" />
          </mxGeometry>
        </mxCell>
        <mxCell id="9" value="@SpringBootApplication" style="curved=1;startArrow=none;endArrow=block;exitX=0.5;exitY=0.99;entryX=0.5;entryY=0;" parent="1" source="3" target="4" edge="1">
          <mxGeometry relative="1" as="geometry">
            <Array as="points" />
          </mxGeometry>
        </mxCell>
        <mxCell id="10" value="@SpringBootConfiguration" style="curved=1;startArrow=none;endArrow=block;exitX=0.5;exitY=1;entryX=0.5;entryY=0;" parent="1" source="4" target="5" edge="1">
          <mxGeometry relative="1" as="geometry">
            <Array as="points" />
          </mxGeometry>
        </mxCell>
        <mxCell id="11" value="@EnableAutoConfiguration" style="curved=1;startArrow=none;endArrow=block;exitX=0.5;exitY=1;entryX=0.5;entryY=0.01;" parent="1" source="5" target="6" edge="1">
          <mxGeometry relative="1" as="geometry">
            <Array as="points" />
          </mxGeometry>
        </mxCell>
        <mxCell id="12" value="@ComponentScan" style="curved=1;startArrow=none;endArrow=block;exitX=0.5;exitY=1.01;entryX=0.5;entryY=0;" parent="1" source="6" target="7" edge="1">
          <mxGeometry relative="1" as="geometry">
            <Array as="points" />
          </mxGeometry>
        </mxCell>
        <mxCell id="jIq6ynQogJiqBeeDrHO1-33" style="edgeStyle=orthogonalEdgeStyle;rounded=0;orthogonalLoop=1;jettySize=auto;html=1;entryX=0.5;entryY=0;entryDx=0;entryDy=0;flowAnimation=1;" edge="1" parent="1" source="jIq6ynQogJiqBeeDrHO1-31" target="jIq6ynQogJiqBeeDrHO1-32">
          <mxGeometry relative="1" as="geometry" />
        </mxCell>
        <mxCell id="jIq6ynQogJiqBeeDrHO1-31" value="" style="image;aspect=fixed;html=1;points=[];align=center;fontSize=12;image=img/lib/azure2/compute/Azure_Spring_Cloud.svg;imageBorder=none;imageBackground=none;sketch=1;curveFitting=1;jiggle=2;" vertex="1" parent="1">
          <mxGeometry x="470" y="13" width="40" height="40" as="geometry" />
        </mxCell>
        <mxCell id="jIq6ynQogJiqBeeDrHO1-39" style="edgeStyle=orthogonalEdgeStyle;rounded=0;orthogonalLoop=1;jettySize=auto;html=1;entryX=0.5;entryY=0;entryDx=0;entryDy=0;flowAnimation=1;" edge="1" parent="1" source="jIq6ynQogJiqBeeDrHO1-32" target="jIq6ynQogJiqBeeDrHO1-35">
          <mxGeometry relative="1" as="geometry" />
        </mxCell>
        <mxCell id="jIq6ynQogJiqBeeDrHO1-40" style="edgeStyle=orthogonalEdgeStyle;rounded=0;orthogonalLoop=1;jettySize=auto;html=1;entryX=0.5;entryY=0;entryDx=0;entryDy=0;exitX=0.5;exitY=1;exitDx=0;exitDy=0;flowAnimation=1;" edge="1" parent="1" source="jIq6ynQogJiqBeeDrHO1-32" target="jIq6ynQogJiqBeeDrHO1-34">
          <mxGeometry relative="1" as="geometry" />
        </mxCell>
        <mxCell id="jIq6ynQogJiqBeeDrHO1-41" style="edgeStyle=orthogonalEdgeStyle;rounded=0;orthogonalLoop=1;jettySize=auto;html=1;exitX=0.5;exitY=1;exitDx=0;exitDy=0;flowAnimation=1;" edge="1" parent="1" source="jIq6ynQogJiqBeeDrHO1-32" target="jIq6ynQogJiqBeeDrHO1-36">
          <mxGeometry relative="1" as="geometry" />
        </mxCell>
        <mxCell id="jIq6ynQogJiqBeeDrHO1-32" value="@SpringBootApplication" style="rounded=1;whiteSpace=wrap;html=1;fillColor=#fad7ac;strokeColor=#b46504;dashed=1;fontFamily=Tahoma;fontStyle=1;fontSize=11;" vertex="1" parent="1">
          <mxGeometry x="410" y="90" width="160" height="40" as="geometry" />
        </mxCell>
        <mxCell id="jIq6ynQogJiqBeeDrHO1-34" value="@SpringBootConfiguration" style="rounded=1;whiteSpace=wrap;html=1;fillColor=#b0e3e6;strokeColor=#0e8088;dashed=1;fontFamily=Tahoma;fontStyle=1;fontSize=11;" vertex="1" parent="1">
          <mxGeometry x="230" y="210" width="160" height="40" as="geometry" />
        </mxCell>
        <mxCell id="jIq6ynQogJiqBeeDrHO1-35" value="@EnableAutoConfiguration" style="rounded=1;whiteSpace=wrap;html=1;fillColor=#b0e3e6;strokeColor=#0e8088;dashed=1;fontFamily=Tahoma;fontStyle=1;fontSize=11;" vertex="1" parent="1">
          <mxGeometry x="410" y="210" width="160" height="40" as="geometry" />
        </mxCell>
        <mxCell id="jIq6ynQogJiqBeeDrHO1-36" value="@ComponentScan" style="rounded=1;whiteSpace=wrap;html=1;fillColor=#b0e3e6;strokeColor=#0e8088;dashed=1;fontFamily=Tahoma;fontStyle=1;fontSize=11;" vertex="1" parent="1">
          <mxGeometry x="590" y="210" width="160" height="40" as="geometry" />
        </mxCell>
      </root>
    </mxGraphModel>
  </diagram>
</mxfile>
